<?xml version="1.0" encoding="utf-8"?><!DOCTYPE svg PUBLIC "-//W3C//DTD SVG 1.0//EN" "http://www.w3.org/TR/2001/REC-SVG-20010904/DTD/svg10.dtd"><svg version="1.0" xmlns="http://www.w3.org/2000/svg" xmlns:xlink="http://www.w3.org/1999/xlink" x="0px" y="0px" viewBox="0 0 99.994 90.818" enable-background="new 0 0 99.994 90.818" xml:space="preserve"><path d="M35.524,66.436c3.855,0,6.985-3.129,6.985-6.984c0-3.85-3.13-6.979-6.985-6.979s-6.985,3.129-6.985,6.979
	C28.539,63.307,31.669,66.436,35.524,66.436z"></path><path d="M94.387,56.472c3.054,0,5.532,2.453,5.557,5.507l0.025,14.671H56.609V56.472H94.387z"></path><polygon points="10.039,90.818 99.994,90.818 99.994,81.48 19.377,81.48 19.377,46.114 99.994,9.688 99.994,0 0,45.137 0,54.851 
	10.039,50.344 "></polygon><path d="M45.938,69.766h-12.53c-1.902,0-3.442,1.551-3.442,3.454c0,1.878,1.54,3.43,3.442,3.43h15.947
	c1.902,0,3.442-1.552,3.442-3.43V59.4c0-1.902-1.54-3.436-3.442-3.436c-1.89,0-3.43,1.533-3.43,3.436L45.938,69.766z"></path></svg>